REM DIRINDEX 1\8,1\2\11,1\3\12,1\3\14,1\5\15,1\5\16,1\6\17,1\6\18,1\4\19,1\4\20,1\4\21,1\4\22,1\7\23,1\7\24,1\7\25,1\2\9\26,1\2\9\27,1\2\10\28,1\2\10\29,1\2\10\30,1\2\10\31,1\2\10\32,1\3\13\33,1\3\13\34,1\3\13\35
REM DIRNAME cjc123,folder01,folder02,folder03,folder04,folder05,folder06,folder07,folder08,folder09,folder10,folder11,folder12,folder13,folder14,folder15,folder16,folder17,folder18,folder19,folder20,folder21,folder22,folder23,folder24,folder25,folder26,folder27,folder28,folder29,folder30,folder31,folder32,folder33,folder34
TITLE ""
FILE "154 154_—á•¶UNIT6_SET2.mp3" MP3
  TRACK 01 AUDIO
    TITLE "22:cjc123_4061"
    INDEX 01 00:00:00
  TRACK 02 AUDIO
    TITLE "0:"
    INDEX 01 00:02:49
  TRACK 03 AUDIO
    TITLE "19:cjc123_4062"
    INDEX 01 00:03:27
  TRACK 04 AUDIO
    TITLE "0:"
    INDEX 01 00:09:32
  TRACK 05 AUDIO
    TITLE "20:cjc123_4063"
    INDEX 01 00:10:02
  TRACK 06 AUDIO
    TITLE "0:"
    INDEX 01 00:15:23
  TRACK 07 AUDIO
    TITLE "21:cjc123_4064"
    INDEX 01 00:15:50
  TRACK 08 AUDIO
    TITLE "0:"
    INDEX 01 00:21:55
  TRACK 09 AUDIO
    TITLE "19:cjc123_4065"
    INDEX 01 00:22:32
  TRACK 10 AUDIO
    TITLE "0:"
    INDEX 01 00:26:28
  TRACK 11 AUDIO
    TITLE "20:cjc123_4066"
    INDEX 01 00:26:71
  TRACK 12 AUDIO
    TITLE "0:"
    INDEX 01 00:32:11
  TRACK 13 AUDIO
    TITLE "21:cjc123_4067"
    INDEX 01 00:32:39
  TRACK 14 AUDIO
    TITLE "0:"
    INDEX 01 00:36:36
  TRACK 15 AUDIO
    TITLE "19:cjc123_4068"
    INDEX 01 00:37:18
  TRACK 16 AUDIO
    TITLE "0:"
    INDEX 01 00:42:31
  TRACK 17 AUDIO
    TITLE "20:cjc123_4069"
    INDEX 01 00:42:66
  TRACK 18 AUDIO
    TITLE "0:"
    INDEX 01 00:48:28
  TRACK 19 AUDIO
    TITLE "21:cjc123_4070"
    INDEX 01 00:48:55
  TRACK 20 AUDIO
    TITLE "0:"
    INDEX 01 00:53:68
  TRACK 21 AUDIO
    TITLE "19:cjc123_4071"
    INDEX 01 00:54:44
  TRACK 22 AUDIO
    TITLE "0:"
    INDEX 01 00:58:32
  TRACK 23 AUDIO
    TITLE "20:cjc123_4072"
    INDEX 01 00:58:60
  TRACK 24 AUDIO
    TITLE "0:"
    INDEX 01 01:02:01
  TRACK 25 AUDIO
    TITLE "21:cjc123_4073"
    INDEX 01 01:02:28
  TRACK 26 AUDIO
    TITLE "0:"
    INDEX 01 01:06:16
  TRACK 27 AUDIO
    TITLE "19:cjc123_4074"
    INDEX 01 01:06:59
  TRACK 28 AUDIO
    TITLE "0:"
    INDEX 01 01:12:13
  TRACK 29 AUDIO
    TITLE "20:cjc123_4075"
    INDEX 01 01:12:42
  TRACK 30 AUDIO
    TITLE "0:"
    INDEX 01 01:18:13
  TRACK 31 AUDIO
    TITLE "21:cjc123_4076"
    INDEX 01 01:18:41
  TRACK 32 AUDIO
    TITLE "0:"
    INDEX 01 01:23:71
  TRACK 33 AUDIO
    TITLE "19:cjc123_4077"
    INDEX 01 01:24:39
  TRACK 34 AUDIO
    TITLE "0:"
    INDEX 01 01:29:11
  TRACK 35 AUDIO
    TITLE "20:cjc123_4078"
    INDEX 01 01:29:48
  TRACK 36 AUDIO
    TITLE "0:"
    INDEX 01 01:34:16
  TRACK 37 AUDIO
    TITLE "21:cjc123_4079"
    INDEX 01 01:34:46
  TRACK 38 AUDIO
    TITLE "0:"
    INDEX 01 01:39:17
  TRACK 39 AUDIO
    TITLE "19:cjc123_4080"
    INDEX 01 01:39:70
  TRACK 40 AUDIO
    TITLE "0:"
    INDEX 01 01:45:53
  TRACK 41 AUDIO
    TITLE "20:cjc123_4081"
    INDEX 01 01:46:21
  TRACK 42 AUDIO
    TITLE "0:"
    INDEX 01 01:51:70
  TRACK 43 AUDIO
    TITLE "21:cjc123_4082"
    INDEX 01 01:52:20
  TRACK 44 AUDIO
    TITLE "0:"
    INDEX 01 01:58:01
  TRACK 45 AUDIO
    TITLE "19:cjc123_4083"
    INDEX 01 01:58:66
  TRACK 46 AUDIO
    TITLE "0:"
    INDEX 01 02:02:52
  TRACK 47 AUDIO
    TITLE "20:cjc123_4084"
    INDEX 01 02:03:08
  TRACK 48 AUDIO
    TITLE "0:"
    INDEX 01 02:08:00
  TRACK 49 AUDIO
    TITLE "21:cjc123_4085"
    INDEX 01 02:08:29
  TRACK 50 AUDIO
    TITLE "0:"
    INDEX 01 02:12:13
  TRACK 51 AUDIO
    TITLE "19:cjc123_4086"
    INDEX 01 02:12:62
  TRACK 52 AUDIO
    TITLE "0:"
    INDEX 01 02:17:55
  TRACK 53 AUDIO
    TITLE "20:cjc123_4087"
    INDEX 01 02:18:12
  TRACK 54 AUDIO
    TITLE "0:"
    INDEX 01 02:23:19
  TRACK 55 AUDIO
    TITLE "21:cjc123_4088"
    INDEX 01 02:23:44
  TRACK 56 AUDIO
    TITLE "0:"
    INDEX 01 02:28:37
  TRACK 57 AUDIO
    TITLE "19:cjc123_4089"
    INDEX 01 02:29:09
  TRACK 58 AUDIO
    TITLE "0:"
    INDEX 01 02:34:11
  TRACK 59 AUDIO
    TITLE "20:cjc123_4090"
    INDEX 01 02:34:54
  TRACK 60 AUDIO
    TITLE "0:"
    INDEX 01 02:39:49
  TRACK 61 AUDIO
    TITLE "21:cjc123_4091"
    INDEX 01 02:40:01
  TRACK 62 AUDIO
    TITLE "0:"
    INDEX 01 02:45:01
  TRACK 63 AUDIO
    TITLE "19:cjc123_4092"
    INDEX 01 02:46:04
  TRACK 64 AUDIO
    TITLE "0:"
    INDEX 01 02:49:55
  TRACK 65 AUDIO
    TITLE "20:cjc123_4093"
    INDEX 01 02:50:08
  TRACK 66 AUDIO
    TITLE "0:"
    INDEX 01 02:53:55
  TRACK 67 AUDIO
    TITLE "21:cjc123_4094"
    INDEX 01 02:54:15
  TRACK 68 AUDIO
    TITLE "0:"
    INDEX 01 02:57:65
  TRACK 69 AUDIO
    TITLE "19:cjc123_4095"
    INDEX 01 02:58:39
  TRACK 70 AUDIO
    TITLE "0:"
    INDEX 01 03:03:22
  TRACK 71 AUDIO
    TITLE "20:cjc123_4096"
    INDEX 01 03:03:51
  TRACK 72 AUDIO
    TITLE "0:"
    INDEX 01 03:07:71
  TRACK 73 AUDIO
    TITLE "21:cjc123_4097"
    INDEX 01 03:08:21
  TRACK 74 AUDIO
    TITLE "0:"
    INDEX 01 03:13:05
  TRACK 75 AUDIO
    TITLE "19:cjc123_4098"
    INDEX 01 03:13:54
  TRACK 76 AUDIO
    TITLE "0:"
    INDEX 01 03:17:52
  TRACK 77 AUDIO
    TITLE "20:cjc123_4099"
    INDEX 01 03:18:26
  TRACK 78 AUDIO
    TITLE "0:"
    INDEX 01 03:22:37
  TRACK 79 AUDIO
    TITLE "21:cjc123_4100"
    INDEX 01 03:22:65
  TRACK 80 AUDIO
    TITLE "0:"
    INDEX 01 03:26:62
  TRACK 81 AUDIO
    TITLE "19:cjc123_4101"
    INDEX 01 03:27:44
  TRACK 82 AUDIO
    TITLE "0:"
    INDEX 01 03:31:34
  TRACK 83 AUDIO
    TITLE "20:cjc123_4102"
    INDEX 01 03:32:08
  TRACK 84 AUDIO
    TITLE "0:"
    INDEX 01 03:36:35
  TRACK 85 AUDIO
    TITLE "21:cjc123_4103"
    INDEX 01 03:36:61
  TRACK 86 AUDIO
    TITLE "0:"
    INDEX 01 03:40:49
  TRACK 87 AUDIO
    TITLE "19:cjc123_4104"
    INDEX 01 03:41:38
  TRACK 88 AUDIO
    TITLE "0:"
    INDEX 01 03:46:00
  TRACK 89 AUDIO
    TITLE "20:cjc123_4105"
    INDEX 01 03:46:32
  TRACK 90 AUDIO
    TITLE "0:"
    INDEX 01 03:50:37
  TRACK 91 AUDIO
    TITLE "21:cjc123_4106"
    INDEX 01 03:50:63
  TRACK 92 AUDIO
    TITLE "0:"
    INDEX 01 03:55:25
